<?xml version="1.0" standalone="no"?>
<!DOCTYPE svg PUBLIC "-//W3C//DTD SVG 20010904//EN"
 "http://www.w3.org/TR/2001/REC-SVG-20010904/DTD/svg10.dtd">
<svg version="1.0" xmlns="http://www.w3.org/2000/svg"
 width="260.000000pt" height="260.000000pt" viewBox="0 0 260.000000 260.000000"
 preserveAspectRatio="xMidYMid meet">
<metadata>
Created by potrace 1.14, written by Peter Selinger 2001-2017
</metadata>
<g transform="translate(0.000000,260.000000) scale(0.100000,-0.100000)"
fill="#000000" stroke="none">
<path d="M1410 2266 c-111 -23 -223 -101 -277 -193 l-26 -45 -12 29 c-21 47
-85 112 -135 138 -62 31 -128 41 -270 39 -153 -2 -150 -1 -150 -22 0 -14 17
-22 83 -38 l82 -20 2 -881 1 -881 -29 -6 c-90 -18 -139 -38 -139 -57 0 -18 11
-19 384 -19 370 0 384 1 389 19 3 15 -2 21 -22 27 -14 4 -30 8 -36 10 -5 2
-19 5 -30 7 -81 19 -75 12 -76 96 0 42 -1 162 -2 267 l-2 190 45 -28 c82 -52
146 -71 260 -74 135 -4 223 16 320 73 162 95 254 252 289 493 10 65 7 285 -4
350 -18 109 -78 255 -134 330 -117 157 -322 235 -511 196z m42 -103 c65 -39
119 -167 136 -320 13 -126 6 -570 -11 -660 -18 -95 -58 -191 -95 -226 -82 -78
-196 -70 -301 22 l-33 30 0 477 1 477 25 51 c62 127 195 197 278 149z"/>
</g>
</svg>
